<svg width="777" height="96" viewBox="0 0 777 96" fill="#FFFFFF" xmlns="http://www.w3.org/2000/svg">
<g opacity="0.5">
<mask id="path-1-inside-1_0_46" fill="white">
<path fill-rule="evenodd" clip-rule="evenodd" d="M0 95.9997C0 95.9997 192.477 -116.458 393.059 95.9997C393.059 95.9997 569.327 -117.754 777 95.9997"/>
</mask>
<path fill-rule="evenodd" clip-rule="evenodd" d="M0 95.9997C0 95.9997 192.477 -116.458 393.059 95.9997C393.059 95.9997 569.327 -117.754 777 95.9997" fill="black" fill-opacity="0.01"/>
<path d="M393.059 95.9997L392.332 96.6862L393.109 97.51L393.83 96.6359L393.059 95.9997ZM0 95.9997C0.741097 96.6711 0.741497 96.6706 0.74263 96.6694C0.743986 96.6679 0.74585 96.6658 0.748557 96.6629C0.753972 96.6569 0.762309 96.6478 0.77356 96.6354C0.796061 96.6108 0.830212 96.5735 0.875926 96.5239C0.967354 96.4246 1.10503 96.2759 1.28825 96.0802C1.6547 95.6888 2.20331 95.1095 2.92846 94.3617C4.37878 92.8661 6.53514 90.6968 9.35251 88.0091C14.9875 82.6336 23.2652 75.1861 33.8255 66.9098C54.9504 50.3537 85.1856 30.4996 121.652 17.2679C158.113 4.03836 200.783 -2.56458 246.812 7.34649C292.836 17.2565 342.302 43.6948 392.332 96.6862L393.786 95.3132C343.524 42.0755 293.712 15.3993 247.233 5.3913C200.759 -4.61558 157.701 2.06011 120.97 15.3878C84.2448 28.7134 53.8244 48.6952 32.5918 65.3357C21.9732 73.6577 13.6466 81.1487 7.972 86.562C5.13457 89.2688 2.95979 91.4565 1.49269 92.9694C0.759131 93.7258 0.202454 94.3136 -0.171711 94.7132C-0.358794 94.913 -0.500253 95.0658 -0.595384 95.1691C-0.64295 95.2208 -0.678934 95.2601 -0.703249 95.2867C-0.715406 95.3 -0.724646 95.3102 -0.730958 95.3171C-0.734113 95.3206 -0.736649 95.3234 -0.738228 95.3251C-0.740029 95.3271 -0.741097 95.3283 0 95.9997ZM393.059 95.9997C393.83 96.6359 393.831 96.6355 393.832 96.6343C393.833 96.6328 393.834 96.6307 393.837 96.6278C393.842 96.6218 393.849 96.6127 393.86 96.6003C393.88 96.5756 393.911 96.5382 393.953 96.4883C394.037 96.3886 394.163 96.2392 394.331 96.0425C394.667 95.6491 395.171 95.0666 395.837 94.3147C397.171 92.8108 399.156 90.6291 401.759 87.926C406.964 82.5195 414.636 75.0289 424.491 66.7045C444.205 50.052 472.632 30.0838 507.509 16.7763C542.377 3.47206 583.68 -3.1711 629.183 6.79917C674.686 16.7693 724.474 43.3711 776.283 96.6965L777.717 95.3028C725.689 41.7514 675.567 14.9148 629.611 4.84552C583.657 -5.22361 541.954 1.49283 506.796 14.9078C471.646 28.3196 443.026 48.4301 423.2 65.1766C413.285 73.5518 405.563 81.0907 400.318 86.5389C397.695 89.2631 395.691 91.465 394.341 92.9879C393.666 93.7494 393.154 94.3411 392.81 94.7436C392.638 94.9448 392.508 95.0987 392.421 95.2028C392.377 95.2549 392.344 95.2945 392.322 95.3214C392.311 95.3348 392.302 95.3451 392.297 95.3521C392.294 95.3556 392.291 95.3585 392.29 95.3602C392.288 95.3622 392.287 95.3635 393.059 95.9997Z" fill="white" mask="url(#path-1-inside-1_0_46)"/>
</g>
</svg>
