<svg width="20" height="22" viewBox="0 0 20 22" fill="none" xmlns="http://www.w3.org/2000/svg">
<path fill-rule="evenodd" clip-rule="evenodd" d="M19.9928 19.9796L18.9488 21.0267L13.1818 15.2431C12.8501 15.5422 12.4857 15.8087 12.088 16.0409C11.6903 16.2738 11.2755 16.4732 10.8451 16.6391C10.414 16.8059 9.95802 16.9306 9.4779 17.0131C8.99704 17.0964 8.52475 17.1379 8.06105 17.1379C6.93388 17.1379 5.88127 16.922 4.9041 16.4897C3.92604 16.058 3.07235 15.476 2.34365 14.7446C1.6143 14.0138 1.04257 13.1576 0.62855 12.177C0.213652 11.1969 0.00702798 10.1577 0.00702798 9.0608C0.00702798 7.93126 0.213652 6.87558 0.62855 5.89496C1.04257 4.91485 1.6143 4.05872 2.34365 3.3271C3.07235 2.59647 3.92604 2.02318 4.9041 1.60722C5.88127 1.19199 6.93388 0.983768 8.06105 0.983768C9.15474 0.983768 10.1903 1.19199 11.1682 1.60722C12.1455 2.02318 12.9992 2.59647 13.7287 3.3271C14.4573 4.05872 15.0376 4.91485 15.4687 5.89496C15.899 6.87558 16.115 7.93126 16.115 9.0608C16.115 9.52666 16.073 10.0004 15.9907 10.4818C15.9076 10.964 15.7833 11.4212 15.6178 11.8529C15.4516 12.2852 15.2527 12.7004 15.0213 13.0993C14.789 13.4982 14.5241 13.8643 14.2258 14.196L19.9928 19.9796ZM0.852246 9.0608C0.852246 10.058 1.03399 10.9889 1.39908 11.8529C1.76344 12.7175 2.27692 13.4817 2.94029 14.1464C3.60291 14.8116 4.37354 15.335 5.25203 15.7168C6.12987 16.0992 7.0667 16.2901 8.06105 16.2901C9.0553 16.2901 9.98291 16.0992 10.8451 15.7168C11.7066 15.335 12.4687 14.8116 13.132 14.1464C13.7946 13.4817 14.3167 12.7175 14.6981 11.8529C15.0788 10.9889 15.2699 10.058 15.2699 9.0608C15.2699 8.06365 15.0788 7.12506 14.6981 6.24397C14.3167 5.36367 13.7946 4.59078 13.132 3.92559C12.4687 3.26091 11.7066 2.74616 10.8451 2.37982C9.98291 2.01452 9.0553 1.8315 8.06105 1.8315C7.0667 1.8315 6.12987 2.01452 5.25203 2.37982C4.37354 2.74616 3.60291 3.26091 2.94029 3.92559C2.27692 4.59078 1.76344 5.36367 1.39908 6.24397C1.03399 7.12506 0.852246 8.06365 0.852246 9.0608Z" fill="white"/>
</svg>
